<?xml version="1.0" encoding="utf-8"?>
<!-- Generator: Adobe Illustrator 24.3.0, SVG Export Plug-In . SVG Version: 6.00 Build 0)  -->
<svg version="1.1" id="Layer_1" xmlns="http://www.w3.org/2000/svg" xmlns:xlink="http://www.w3.org/1999/xlink" x="0px" y="0px"
	 viewBox="0 0 41.1 41.5" style="enable-background:new 0 0 41.1 41.5;" xml:space="preserve">
<style type="text/css">
	.st0{fill:#DC3545;}
</style>
<path class="st0" d="M20.6,0C9.2,0,0,9.3,0,20.8s9.2,20.8,20.6,20.8c11.4,0,20.6-9.3,20.6-20.8S31.9,0,20.6,0z M18.7,4.1
	c0.6,0.2,1.1,1,1.6,1.5c0,0,0,0,0,0c0,0,0,0,0,0c0.5-0.5,1-1.3,1.6-1.5c0.7-0.2,1.6,1.6,1.1,2.5C22.4,8,21.5,9.4,20.6,11
	c-0.1,0.1-0.1,0.3-0.2,0.4c0,0,0,0,0-0.1c0,0,0,0,0,0.1c-0.1-0.1-0.1-0.3-0.2-0.4c-1-1.6-1.8-3-2.5-4.4C17.2,5.6,18,3.9,18.7,4.1z
	 M17.8,9.1c1,1.5,1.9,3,2.8,4.3c0.8-1.4,1.7-3,2.8-4.8c1.6,3.9-2.3,5.5-2.8,8.4C17.9,14.4,16.6,10.9,17.8,9.1z M16.1,12.8
	c1.5,2.6,3,5.2,4.3,7.4c1.2-2.5,2.6-5.3,4-8.1c1.3,1.9,1.1,5.7-0.4,7.2c-1.1,1.2-2.4,2.2-3.5,3.3c-1.3-1.1-2.7-2.3-4-3.5
	C14.9,17.5,14.7,14.9,16.1,12.8z M17.3,21.9c1.5,1.1,2.2,2.6,2.5,4.4c-0.9-2.1-2.4-3.5-4.7-4c1.3,1.4,2.7,2.9,4,4.3
	c-4.1-1.9-6.9-4.6-6.9-9.5C13.1,19.5,15.4,20.5,17.3,21.9z M9.3,20.6c0.5,0.8,0.9,1.3,1.2,1.9c1.3,2.1,3.2,3.2,5.6,3.8
	c2.5,0.6,3.8,2.2,4,4.8c-0.8-2-2.3-2.5-3.8-3c-1.5-0.4-2.9-0.9-4.4-1.4c0.9,1.7,2.3,2.4,3.9,2.9c1,0.3,2,0.6,2.8,1.2
	c0.8,0.6,1.3,1.6,1.7,2.6c-1.3-2-3.4-2.5-5.5-3C10.2,29.1,7.9,25,9.3,20.6z M19.9,38.4c-1.4-0.9-2.6-1.9-4.1-2.6
	c-1.7-0.8-3.6-1.2-5.3-2c-3.3-1.6-5.3-5.6-4.3-9.2c0-0.1,0.2-0.6,0.4-0.9c0.8,4.4,3.9,6.2,7.7,7.1c2,0.5,3.9,1.4,5.2,3.1
	c0.4,0.5,0.6,1.1,0.6,1.9c-0.3-0.3-0.6-0.8-0.9-1c-1.3-0.8-2.5-2.1-4.1-2.4c-1.9-0.3-4.3-1.3-6-2.5c0.7,1.1,0.7,1.3,2.1,2.7
	c1.1,1.1,2.4,1,3.9,1.4c2.2,0.7,4.3,1.5,5.2,3.9c0.1,0.2,0.3,0.3,0.3,0.7C20.4,38.6,20.1,38.5,19.9,38.4z M22.9,21.6
	c1.8-1.7,4-3.1,4.6-5.9c0.8,5-1.7,8.4-5.6,11c1.2-1.7,2.3-3.4,3.5-5.1c-2.3,0.9-3.6,2.6-4.3,4.9C21,24.6,21.5,22.9,22.9,21.6z
	 M25,26.9c-2.2,0.6-2.1,0.9-3.4,2.8c0,0-0.1,0-0.1,0c0.4-0.9,0.8-1.7,1.4-2.4c0.9-1,2.2-1.7,3.2-2.6c1.6-1.4,3.2-3,4.7-4.4
	c0.8,1.7,0.3,5-1.7,6.7c-1.5,1.3-3.3,2.3-5,3.3c-0.9,0.6-1.9,1.2-2.8,1.7c0-0.4,0.2-0.8,0.4-1.1c1-1,1.5-2.1,2.6-2.6
	c1.2-0.5,2.5-1.8,3.4-2.7C27.7,25.5,26.3,26.5,25,26.9z M35,28c-0.6,2.5-2.3,4.1-4.5,5.2c-1.3,0.7-2.8,1.1-4.1,1.6
	c-1.5,0.5-3,1-4.8,1.6c2.8-3,7.3-2.5,9.7-5.7c-3.3,1.4-6.5,2.7-9.7,4.1c0.2-1,1.1-1.9,2.3-2.5c1.5-0.7,3-1.4,4.5-2.1
	c3-1.5,5.1-3.7,5.3-7.7C35.2,24.4,35.4,26.1,35,28z"/>
</svg>
